<?xml version="1.0" encoding="utf-8"?>
<!-- Generator: Adobe Illustrator 16.0.0, SVG Export Plug-In . SVG Version: 6.00 Build 0)  -->
<!DOCTYPE svg PUBLIC "-//W3C//DTD SVG 1.1//EN" "http://www.w3.org/Graphics/SVG/1.1/DTD/svg11.dtd">
<svg version="1.1" id="Warstwa_1" xmlns="http://www.w3.org/2000/svg" xmlns:xlink="http://www.w3.org/1999/xlink" x="0px" y="0px"
	 width="74.583px" height="65.421px" viewBox="0 0 74.583 65.421" enable-background="new 0 0 74.583 65.421" xml:space="preserve">
<g>
	<path fill-rule="evenodd" clip-rule="evenodd" fill="#D61827" d="M68.978,19.257c0,13.405,0,26.81,0,40.214
		c-0.165,0.466-0.279,0.957-0.506,1.39c-0.422,0.802-1.199,1.158-2.019,1.428c-17.906,0-35.812,0-53.718,0
		c-0.169-0.042-0.338-0.088-0.509-0.126c-1.293-0.291-2.137-1.2-2.323-2.509c-0.031-0.221-0.055-0.444-0.082-0.667
		c0-15.963,0-31.926,0-47.89c0.018-0.337,0.048-0.674,0.053-1.011c0.045-3.585,2.485-6.359,6.032-6.828
		c0.622-0.082,1.254-0.086,1.88-0.126c14.831,0,29.66,0,44.49,0c0.075,0.028,0.148,0.064,0.225,0.084
		c1.714,0.447,2.497,1.464,2.497,3.252c0,2.668-0.001,5.336,0,8.005c0,0.157,0.014,0.314,0.023,0.513c0.302,0,0.573,0,0.844,0
		c1.755,0.006,3.027,1.262,3.063,3.016C68.934,18.421,68.96,18.838,68.978,19.257z M11.782,14.932c0,0.222,0,0.407,0,0.591
		c0.001,3.804,0.004,7.607,0.004,11.412c0,10.683-0.002,21.366-0.001,32.05c0,0.993,0.349,1.341,1.34,1.341
		c6.767,0.004,13.532,0.006,20.298,0.009c6.361,0.003,12.722,0.005,19.083,0.008c4.419,0.005,8.838,0.013,13.257,0.018
		c0.866,0,1.252-0.387,1.252-1.235c0-3.998,0-7.996,0.001-11.994c0-0.664,0-0.664-0.645-0.664c-3.075,0-6.151,0.008-9.227-0.006
		c-0.563-0.003-1.138-0.038-1.686-0.156c-3.078-0.664-5.285-2.436-6.499-5.343c-1.073-2.572-0.921-5.149,0.44-7.569
		c1.745-3.104,4.503-4.579,8.036-4.608c2.994-0.024,5.989-0.005,8.983-0.005c0.186,0,0.371,0,0.568,0
		c0.011-0.208,0.023-0.335,0.024-0.463c0.001-3.415,0.003-6.83,0-10.246c0-0.786-0.394-1.143-1.228-1.143
		c-16.316,0-32.633,0-48.949,0.001c-1.171,0-2.285-0.243-3.301-0.827C12.952,15.768,12.415,15.359,11.782,14.932z M61.566,5.099
		c-0.82,0-1.515,0-2.209,0C51.67,5.098,43.982,5.098,36.295,5.097c-6.474,0-12.947-0.015-19.42,0.021
		c-0.738,0.004-1.53,0.159-2.202,0.458c-2.117,0.943-3.28,3.298-2.79,5.428c0.564,2.456,2.446,3.983,4.917,3.983
		c15.229,0,30.459,0,45.688,0c0.173,0,0.346,0,0.514,0c0.025-0.098,0.046-0.143,0.046-0.188c0.002-2.913,0.003-5.826,0.002-8.74
		c0-0.473-0.315-0.703-0.689-0.908c-0.39-0.212-0.756-0.468-1.144-0.712c0.64-0.796,0.64-0.796,0.531-0.953
		c-0.29,0.276-0.58,0.552-0.886,0.844C61.083,4.572,61.285,4.792,61.566,5.099z M66.99,30.721c-0.202,0-0.346,0-0.49,0
		c-3.188,0-6.376-0.007-9.564,0.003c-3.35,0.011-6.371,2.778-6.695,6.117c-0.434,4.471,3.088,7.773,6.947,7.71
		c3.106-0.05,6.214-0.009,9.321-0.011c0.154,0,0.309-0.021,0.481-0.033C66.99,39.903,66.99,35.346,66.99,30.721z"/>
	<path fill-rule="evenodd" clip-rule="evenodd" fill="#D61827" d="M15.769,10.97c0-0.556,0-1.086,0-1.617
		c0-0.34,0.255-0.272,0.453-0.273c1.279-0.005,2.558-0.003,3.836-0.003c12.772,0.001,25.544,0.002,38.317,0.003
		c0.208,0,0.416,0,0.659,0c0,0.643,0,1.249,0,1.89C44.644,10.97,30.245,10.97,15.769,10.97z"/>
	<path fill-rule="evenodd" clip-rule="evenodd" fill="#D61827" d="M52.238,37.616c-0.021-2.636,2.175-4.851,4.829-4.868
		c2.72-0.018,4.974,2.156,4.957,4.837c-0.019,2.776-2.034,4.865-4.854,4.956C54.476,42.627,52.261,40.368,52.238,37.616z
		 M57.15,34.668c-1.659-0.003-3.006,1.301-3.01,2.913c-0.004,1.668,1.32,3.035,2.946,3.041c1.707,0.006,3.038-1.332,3.035-3.052
		C60.118,35.991,58.767,34.671,57.15,34.668z"/>
	<polygon fill-rule="evenodd" clip-rule="evenodd" fill="#D61827" points="62.642,5.093 59.401,5.093 59.401,3.132 61.96,3.132 	"/>
</g>
<g>
	<path fill="#FFFFFF" d="M23.303,27.993H26.4v10.51h1.454v2.874H26.4v3.352h-3.041v-3.352h-7.125v-2.874L23.303,27.993z
		 M23.359,38.503v-5.471l-3.729,5.471H23.359z"/>
	<path fill="#FFFFFF" d="M29.302,28.404h3.496l3.431,5.241l3.438-5.241h3.491l-5.179,7.915l5.505,8.41h-3.496l-3.757-5.739
		l-3.756,5.739h-3.518l5.521-8.417L29.302,28.404z"/>
</g>
</svg>
