<?xml version="1.0" encoding="utf-8"?>
<!-- Generator: Adobe Illustrator 16.0.0, SVG Export Plug-In . SVG Version: 6.00 Build 0)  -->
<!DOCTYPE svg PUBLIC "-//W3C//DTD SVG 1.1//EN" "http://www.w3.org/Graphics/SVG/1.1/DTD/svg11.dtd">
<svg version="1.1" id="Warstwa_1" xmlns="http://www.w3.org/2000/svg" xmlns:xlink="http://www.w3.org/1999/xlink" x="0px" y="0px"
	 width="74.583px" height="65.421px" viewBox="0 0 74.583 65.421" enable-background="new 0 0 74.583 65.421" xml:space="preserve">
<path fill-rule="evenodd" clip-rule="evenodd" fill="none" stroke="#D61827" stroke-width="2" stroke-miterlimit="10" d="
	M16.667,57.73c1.7,1.122,3.586,1.829,5.524,2.4c2.643,0.781,5.344,1.266,8.082,1.536c1.461,0.145,2.927,0.237,4.347,0.35h4.726
	c1.604-0.133,3.211-0.232,4.809-0.416c3.678-0.422,7.291-1.144,10.705-2.636c0.748-0.326,1.473-0.718,2.166-1.146
	c1.283-0.791,2.373-1.771,2.814-3.293c0-0.683,0-1.365,0-2.048c-0.096-0.595-0.178-1.193-0.291-1.785
	c-1.207-6.325-6.389-11.531-12.699-12.795c-0.49-0.098-0.842-0.021-1.254,0.265c-2.396,1.663-5.064,2.497-7.987,2.511
	c-1.503,0.008-3.001,0.003-4.479-0.345c-1.903-0.449-3.647-1.237-5.222-2.396c-0.155-0.114-0.293-0.142-0.482-0.106
	c-6.683,1.256-11.762,6.231-13.139,12.897c-0.133,0.647-0.181,1.313-0.27,1.969c-0.015,0.104-0.036,0.209-0.055,0.313
	c0,0.43,0,0.858,0,1.288C14.295,55.886,15.389,56.887,16.667,57.73z"/>
<path fill-rule="evenodd" clip-rule="evenodd" fill="none" stroke="#D61827" stroke-width="2" stroke-linecap="round" stroke-miterlimit="10" d="
	M46.91,31.376c0.414-0.771,0.857-1.534,1.193-2.34c1.066-2.564,1.436-5.224,0.822-7.957c-1.523-6.789-8.121-10.911-14.896-9.332
	c-5.525,1.288-9.589,6.506-9.389,12.167c0.158,4.456,2.004,8.146,5.362,11.058c1.814,1.572,3.928,2.522,6.354,2.665
	c0.424,0.024,0.851,0.011,1.278-0.005"/>
<path fill-rule="evenodd" clip-rule="evenodd" fill="#FFFFFF" d="M39.872,35.995c-0.758-0.003-1.355-0.586-1.361-1.327
	c-0.003-0.365,0.133-0.704,0.383-0.954c0.252-0.252,0.599-0.393,0.977-0.396l2.395-0.001c0.427,0,0.765,0.159,1.065,0.497
	c0.134,0.148,0.385,0.317,0.664,0.317c2.861-0.279,5.185-1.036,7.169-2.317c0.375-0.246,0.496-0.574,0.372-1.004
	c-0.067-0.239-0.104-0.49-0.104-0.723c-0.012-2.041-0.012-4.076-0.006-6.113c0.003-0.96,0.409-1.683,1.241-2.208
	c0.205-0.129,0.471-0.357,0.438-0.846c-0.529-7.555-6.133-13.675-13.626-14.882c-0.851-0.137-1.717-0.207-2.574-0.207
	c-7.886,0-14.596,5.64-15.954,13.411c-0.06,0.346-0.1,0.694-0.14,1.042c-0.023,0.2-0.045,0.4-0.073,0.599
	c-0.053,0.375,0.086,0.669,0.415,0.87c0.852,0.522,1.267,1.256,1.271,2.243c0.006,2.017,0.006,4.034,0,6.052
	c-0.004,1.484-1.132,2.605-2.623,2.607c-1.511,0-2.649-1.119-2.653-2.603c-0.007-2.018-0.006-4.035,0-6.053
	c0.002-1.007,0.431-1.75,1.309-2.271c0.287-0.171,0.43-0.406,0.452-0.74C19.39,12.716,25.639,5.69,33.768,4.28
	c0.4-0.07,0.804-0.115,1.208-0.161L35.6,4.046c0.073-0.009,0.146-0.025,0.219-0.041L38.073,4l0.498,0.064
	c0.384,0.045,0.769,0.09,1.15,0.155c5.316,0.905,9.505,3.663,12.451,8.196c1.641,2.524,2.578,5.414,2.784,8.587
	c0.015,0.271,0.19,0.563,0.426,0.706c0.887,0.542,1.32,1.307,1.321,2.337l-0.001,2.282c-0.002,1.22-0.004,2.44,0.005,3.66
	c0.005,0.747-0.252,1.403-0.743,1.898c-0.489,0.492-1.178,0.775-1.891,0.775c-0.451,0-0.89-0.108-1.303-0.322
	c-0.105-0.055-0.25-0.118-0.428-0.118c-0.166,0-0.323,0.054-0.479,0.164c-1.694,1.189-3.722,1.973-6.198,2.396
	c-0.282,0.048-0.566,0.083-0.85,0.117c-0.256,0.031-0.511,0.062-0.765,0.102c-0.248,0.04-0.5,0.194-0.645,0.392
	c-0.304,0.411-0.676,0.604-1.168,0.604l-1.458,0.001L39.872,35.995z"/>
</svg>
