<?xml version="1.0" encoding="utf-8"?>
<!-- Generator: Adobe Illustrator 16.0.0, SVG Export Plug-In . SVG Version: 6.00 Build 0)  -->
<!DOCTYPE svg PUBLIC "-//W3C//DTD SVG 1.1//EN" "http://www.w3.org/Graphics/SVG/1.1/DTD/svg11.dtd">
<svg version="1.1" id="Warstwa_1" xmlns="http://www.w3.org/2000/svg" xmlns:xlink="http://www.w3.org/1999/xlink" x="0px" y="0px"
	 width="144.75px" height="72.5px" viewBox="0 0 144.75 72.5" enable-background="new 0 0 144.75 72.5" xml:space="preserve">
<line fill="none" stroke="#FFFFFF" stroke-width="3" stroke-linecap="round" stroke-miterlimit="10" x1="31.724" y1="19.874" x2="76.734" y2="19.874"/>
<line fill="none" stroke="#FFFFFF" stroke-width="3" stroke-linecap="round" stroke-miterlimit="10" x1="18.615" y1="27.907" x2="63.625" y2="27.907"/>
<line fill="none" stroke="#FFFFFF" stroke-width="3" stroke-linecap="round" stroke-miterlimit="10" x1="20.115" y1="36.755" x2="65.125" y2="36.755"/>
<line fill="none" stroke="#FFFFFF" stroke-width="3" stroke-linecap="round" stroke-miterlimit="10" x1="2.74" y1="44.905" x2="47.75" y2="44.905"/>
<path fill="#D61827" d="M141.67,36.361l-5.416-3.271c-0.03-0.029-0.061-0.104-0.077-0.104l1.63-16.009
	c0.07-0.682-0.149-1.36-0.601-1.86c-0.452-0.5-1.104-0.788-1.79-0.788h-21.5c-1.248,0-2.404,0.916-2.689,2.129l-9.604,40.721
	c-0.166,0.704-0.014,1.419,0.416,1.962s1.091,0.854,1.814,0.854h8.263c0.286-1.058,0.73-2.066,1.289-3h-8.657l9.355-39.667h20.652
	l-1.563,15.352c-0.115,1.124,0.503,2.364,1.471,2.949l5.439,3.263l-3.117,18.103h-9.442c0.07,0.934-0.014,1.942-0.28,3h9.986
	c1.291,0,2.429-0.959,2.647-2.231l3.162-18.363C143.258,38.247,142.674,36.968,141.67,36.361z"/>
<path fill-rule="evenodd" clip-rule="evenodd" fill="none" stroke="#D61827" stroke-width="3" stroke-miterlimit="10" d="
	M121.539,35.919c-1.872-0.002-3.744-0.037-5.614,0.008c-1.625,0.04-2.377-0.485-1.991-2.273c0.844-3.899,1.463-7.853,2.456-11.712
	c0.213-0.831,1.579-1.871,2.475-1.933c3.388-0.232,6.8-0.088,10.203-0.111c1.411-0.01,1.996,0.665,1.93,2.046
	c-0.176,3.738-0.35,7.476-0.476,11.216c-0.069,2.063-1.136,2.845-3.113,2.777C125.455,35.869,123.496,35.922,121.539,35.919z"/>
<path fill-rule="evenodd" clip-rule="evenodd" fill="none" stroke="#D61827" stroke-width="3" stroke-linecap="round" stroke-miterlimit="10" d="
	M60.636,60.085c-1.247,4.771-5.649,8.638-9.834,8.639s-6.567-3.865-5.32-8.636c1.247-4.77,5.649-8.638,9.834-8.639
	S61.883,55.314,60.636,60.085z"/>
<g>
	<path fill="#D61827" d="M108.563,5.513c-0.432-0.541-1.093-0.851-1.813-0.851H44.583c-1.191,0-2.367,0.854-2.736,1.986l-2.02,6.193
		c-0.257,0.788,0.174,1.634,0.961,1.891c0.786,0.257,1.634-0.173,1.891-0.961l1.992-6.109h61.201L94.718,56.996H60.936
		c0.07,0.934-0.014,1.942-0.281,3h34.262c1.253,0,2.407-0.922,2.684-2.145L108.992,7.47C109.151,6.767,108.995,6.054,108.563,5.513z
		"/>
	<path fill="#D61827" d="M46.798,56.996H35.171l1.201-4.803c0.201-0.804-0.288-1.618-1.091-1.819
		c-0.808-0.206-1.618,0.288-1.819,1.091l-1.424,5.697c-0.176,0.706-0.032,1.424,0.396,1.972c0.428,0.548,1.09,0.862,1.817,0.862
		h11.26C45.796,58.938,46.24,57.93,46.798,56.996z"/>
</g>
<path fill-rule="evenodd" clip-rule="evenodd" fill="none" stroke="#D61827" stroke-width="3" stroke-linecap="round" stroke-miterlimit="10" d="
	M127.244,60.085c-1.247,4.771-5.649,8.638-9.834,8.639s-6.567-3.865-5.32-8.636c1.247-4.77,5.649-8.638,9.834-8.639
	S128.491,55.314,127.244,60.085z"/>
</svg>
