<?xml version="1.0" encoding="utf-8"?>
<!-- Generator: Adobe Illustrator 16.0.0, SVG Export Plug-In . SVG Version: 6.00 Build 0)  -->
<!DOCTYPE svg PUBLIC "-//W3C//DTD SVG 1.1//EN" "http://www.w3.org/Graphics/SVG/1.1/DTD/svg11.dtd">
<svg version="1.1" id="Warstwa_1" xmlns="http://www.w3.org/2000/svg" xmlns:xlink="http://www.w3.org/1999/xlink" x="0px" y="0px"
	 width="558.5px" height="59.5px" viewBox="0 0 558.5 59.5" enable-background="new 0 0 558.5 59.5" xml:space="preserve">
<g>
	<path fill="#3F445B" d="M24.82,17.809v3.997c1.194-1.599,2.563-2.782,4.109-3.55c1.545-0.768,3.31-1.151,5.292-1.151
		c2.835,0,5.26,0.502,7.274,1.503c2.015,1.003,3.746,2.569,5.196,4.701c1.386-2.089,2.942-3.646,4.669-4.669
		s3.634-1.535,5.724-1.535c4.306,0,7.61,1.354,9.913,4.062c2.302,2.707,3.453,6.587,3.453,11.64v20.177h-8.059V37.41
		c0-4.775-0.527-8.021-1.582-9.737c-1.056-1.716-2.884-2.574-5.484-2.574c-2.707,0-4.642,0.965-5.804,2.895
		s-1.742,5.239-1.742,9.929v15.061h-8.122V37.41c0-4.754-0.539-7.994-1.615-9.721c-1.077-1.727-2.958-2.591-5.644-2.591
		c-2.729,0-4.69,0.965-5.884,2.895c-1.194,1.93-1.791,5.239-1.791,9.929v15.061h-7.897V17.809H24.82z"/>
	<path fill="#3F445B" d="M104.666,52.982v-4.316c-0.981,1.748-2.361,3.037-4.142,3.869c-1.779,0.831-4.056,1.247-6.826,1.247
		c-5.202,0-9.545-1.775-13.03-5.324c-3.486-3.55-5.229-7.957-5.229-13.223c0-2.473,0.437-4.817,1.311-7.034s2.121-4.168,3.741-5.853
		c1.748-1.854,3.688-3.224,5.82-4.108c2.131-0.885,4.529-1.327,7.194-1.327c2.559,0,4.759,0.427,6.604,1.279
		c1.844,0.853,3.33,2.143,4.461,3.869v-4.253h7.993v35.174H104.666z M83.817,35.107c0,2.964,0.985,5.441,2.958,7.435
		c1.971,1.994,4.375,2.99,7.21,2.99c2.579,0,4.85-1.002,6.812-3.006c1.961-2.004,2.941-4.349,2.941-7.035
		c0-2.856-0.986-5.313-2.958-7.37s-4.279-3.086-6.923-3.086c-2.771,0-5.138,0.976-7.099,2.926S83.817,32.294,83.817,35.107z"/>
	<path fill="#3F445B" d="M122.285,52.982V25.099h-5.372v-7.29h5.372V6.425h8.186v11.384h5.404v7.29h-5.404v27.884H122.285z"/>
	<path fill="#3F445B" d="M146.171,37.985c0.276,2.537,1.284,4.536,3.021,5.996s3.981,2.19,6.731,2.19
		c1.833,0,3.479-0.384,4.94-1.151c1.46-0.768,2.616-1.844,3.469-3.229h8.826c-1.493,3.837-3.726,6.816-6.699,8.938
		s-6.411,3.182-10.313,3.182c-2.622,0-5.036-0.464-7.243-1.392c-2.206-0.927-4.184-2.297-5.932-4.108
		c-1.662-1.728-2.952-3.726-3.869-5.996c-0.916-2.271-1.375-4.599-1.375-6.986c0-2.451,0.421-4.76,1.264-6.923
		c0.842-2.164,2.083-4.109,3.725-5.836c1.791-1.897,3.816-3.357,6.076-4.381c2.259-1.023,4.594-1.535,7.003-1.535
		c3.048,0,5.894,0.693,8.537,2.079s4.893,3.336,6.747,5.852c1.13,1.514,1.967,3.208,2.511,5.084
		c0.543,1.876,0.815,4.029,0.815,6.459c0,0.192-0.012,0.485-0.032,0.88c-0.021,0.395-0.032,0.688-0.032,0.879H146.171z
		 M165.58,31.494c-0.703-2.345-1.881-4.13-3.533-5.355s-3.736-1.839-6.251-1.839c-2.175,0-4.125,0.661-5.852,1.982
		c-1.728,1.322-2.89,3.06-3.486,5.212H165.58z"/>
	<path fill="#3F445B" d="M195.894,24.939c-3.177,0.256-5.394,1.087-6.65,2.494c-1.259,1.406-1.887,3.943-1.887,7.61v17.938h-8.187
		V17.809h7.675v4.061c1.236-1.577,2.59-2.733,4.061-3.469c1.472-0.735,3.134-1.104,4.988-1.104V24.939z"/>
	<path fill="#3F445B" d="M207.213,14.228h-7.993V6.425h7.993V14.228z M199.22,52.982V17.809h7.993v35.174H199.22z"/>
	<path fill="#3F445B" d="M220.867,37.985c0.276,2.537,1.284,4.536,3.021,5.996s3.981,2.19,6.731,2.19
		c1.833,0,3.479-0.384,4.94-1.151c1.46-0.768,2.616-1.844,3.469-3.229h8.826c-1.493,3.837-3.726,6.816-6.699,8.938
		s-6.411,3.182-10.313,3.182c-2.622,0-5.036-0.464-7.243-1.392c-2.206-0.927-4.184-2.297-5.932-4.108
		c-1.662-1.728-2.952-3.726-3.869-5.996c-0.916-2.271-1.375-4.599-1.375-6.986c0-2.451,0.421-4.76,1.264-6.923
		c0.842-2.164,2.083-4.109,3.725-5.836c1.791-1.897,3.816-3.357,6.076-4.381c2.259-1.023,4.594-1.535,7.003-1.535
		c3.048,0,5.894,0.693,8.537,2.079s4.893,3.336,6.747,5.852c1.13,1.514,1.967,3.208,2.511,5.084
		c0.543,1.876,0.815,4.029,0.815,6.459c0,0.192-0.012,0.485-0.032,0.88c-0.021,0.395-0.032,0.688-0.032,0.879H220.867z
		 M240.276,31.494c-0.703-2.345-1.881-4.13-3.533-5.355s-3.736-1.839-6.251-1.839c-2.175,0-4.125,0.661-5.852,1.982
		c-1.728,1.322-2.89,3.06-3.486,5.212H240.276z"/>
	<path fill="#3F445B" d="M254.219,52.982V6.425h7.993v46.558H254.219z"/>
	<path fill="#3F445B" d="M279.479,52.982h-8.187v-8.762h8.187V52.982z"/>
	<path fill="#D61827" d="M315.9,20.622V6.425h8.058v46.558H315.9v-2.878c-1.62,1.279-3.326,2.233-5.116,2.862
		c-1.791,0.628-3.731,0.943-5.82,0.943c-2.217,0-4.306-0.353-6.267-1.056c-1.962-0.703-3.721-1.727-5.276-3.069
		c-2.132-1.834-3.769-4.002-4.908-6.508c-1.141-2.504-1.711-5.164-1.711-7.978c0-2.601,0.527-5.095,1.583-7.482
		c1.055-2.388,2.542-4.455,4.46-6.204c1.6-1.513,3.433-2.664,5.5-3.453c2.067-0.788,4.274-1.183,6.619-1.183
		c2.26,0,4.264,0.293,6.012,0.879C312.724,18.443,314.365,19.365,315.9,20.622z M315.549,35.556c0-3.006-0.955-5.511-2.862-7.515
		c-1.908-2.004-4.29-3.006-7.146-3.006c-2.814,0-5.218,1.023-7.211,3.069c-1.993,2.047-2.99,4.488-2.99,7.323
		c0,2.963,1.002,5.431,3.006,7.402s4.53,2.958,7.579,2.958c2.686,0,4.961-0.991,6.826-2.975
		C314.615,40.831,315.549,38.412,315.549,35.556z"/>
	<path fill="#D61827" d="M338.763,14.228h-7.993V6.425h7.993V14.228z M330.77,52.982V17.809h7.993v35.174H330.77z"/>
	<path fill="#D61827" d="M351.394,41.312v0.479c0,1.556,0.395,2.819,1.184,3.789c0.788,0.97,1.812,1.455,3.069,1.455
		c1.193,0,2.169-0.362,2.926-1.088c0.757-0.724,1.135-1.651,1.135-2.781c0-1.045-0.277-1.903-0.831-2.574
		c-0.555-0.672-1.546-1.349-2.974-2.03c-0.811-0.362-2.004-0.864-3.581-1.503c-1.578-0.64-2.591-1.141-3.038-1.503
		c-1.301-1.066-2.26-2.255-2.878-3.565c-0.618-1.312-0.928-2.809-0.928-4.493c0-2.963,1.04-5.468,3.118-7.515
		c2.078-2.046,4.599-3.069,7.563-3.069c3.134,0,5.611,0.906,7.435,2.718c1.822,1.813,2.818,4.349,2.989,7.61h-7.354V27.05
		c0-1.13-0.293-2.015-0.879-2.654c-0.587-0.64-1.402-0.959-2.446-0.959c-0.917,0-1.679,0.314-2.286,0.943s-0.912,1.412-0.912,2.35
		c0,1.535,1.578,2.964,4.733,4.285c0.831,0.341,1.471,0.607,1.918,0.8c3.027,1.364,5.095,2.829,6.203,4.396
		c1.108,1.566,1.663,3.683,1.663,6.348c0,3.282-1.108,5.995-3.325,8.138c-2.218,2.143-5.01,3.214-8.378,3.214
		c-3.39,0-6.123-1.13-8.202-3.39c-2.078-2.26-3.214-5.318-3.405-9.178L351.394,41.312z"/>
	<path fill="#D61827" d="M398.015,30.312c-0.98-1.833-2.233-3.208-3.757-4.125c-1.524-0.917-3.331-1.375-5.42-1.375
		c-2.771,0-5.09,1.002-6.955,3.006c-1.866,2.004-2.798,4.52-2.798,7.546c0,2.985,0.953,5.468,2.861,7.45
		c1.908,1.983,4.301,2.975,7.179,2.975c2.217,0,4.062-0.475,5.532-1.423c1.471-0.949,2.568-2.372,3.294-4.27h8.729
		c-1.066,4.307-3.145,7.686-6.235,10.137c-3.092,2.452-6.844,3.678-11.256,3.678c-2.602,0-5.01-0.464-7.227-1.392
		c-2.218-0.927-4.221-2.297-6.012-4.108c-1.663-1.706-2.964-3.704-3.901-5.996c-0.938-2.291-1.407-4.62-1.407-6.986
		c0-2.473,0.427-4.786,1.279-6.939c0.853-2.152,2.11-4.093,3.773-5.819c1.833-1.939,3.901-3.41,6.203-4.413
		c2.303-1.002,4.775-1.503,7.419-1.503c4.306,0,8.036,1.227,11.191,3.678s5.233,5.745,6.235,9.881H398.015z"/>
	<path fill="#D61827" d="M410.262,35.235c0-2.473,0.452-4.822,1.359-7.051c0.905-2.228,2.222-4.205,3.948-5.932
		c1.77-1.769,3.763-3.128,5.98-4.077c2.217-0.948,4.519-1.423,6.906-1.423c2.537,0,4.877,0.422,7.019,1.264
		c2.143,0.842,4.109,2.105,5.9,3.789c1.833,1.77,3.25,3.811,4.253,6.123c1.001,2.313,1.503,4.685,1.503,7.115
		c0,2.686-0.438,5.138-1.312,7.354s-2.186,4.221-3.933,6.012c-1.749,1.812-3.741,3.182-5.98,4.108
		c-2.238,0.928-4.668,1.392-7.29,1.392c-2.644,0-5.053-0.47-7.227-1.407c-2.175-0.938-4.157-2.345-5.948-4.221
		c-1.705-1.833-2.995-3.854-3.869-6.06C410.698,40.016,410.262,37.688,410.262,35.235z M418.703,35.172
		c0,3.262,0.896,5.847,2.687,7.754c1.79,1.908,4.221,2.862,7.29,2.862c3.027,0,5.441-0.976,7.243-2.926
		c1.801-1.951,2.702-4.578,2.702-7.883c0-2.963-0.943-5.398-2.83-7.307c-1.887-1.907-4.259-2.861-7.115-2.861
		c-2.941,0-5.34,0.965-7.194,2.894C419.631,29.635,418.703,32.123,418.703,35.172z"/>
	<path fill="#D61827" d="M475.142,52.982v-3.806c-1.194,1.6-2.564,2.788-4.109,3.565c-1.546,0.778-3.31,1.168-5.292,1.168
		c-4.413,0-7.803-1.354-10.169-4.062c-2.366-2.707-3.549-6.598-3.549-11.671V17.809h8.281v15.796c0,4.754,0.544,8.005,1.631,9.753
		c1.088,1.748,2.963,2.622,5.628,2.622c2.729,0,4.685-0.98,5.868-2.941c1.183-1.961,1.774-5.287,1.774-9.977V17.809h8.059v35.174
		H475.142z"/>
	<path fill="#D61827" d="M498.483,17.809v3.997c1.194-1.599,2.563-2.782,4.109-3.55c1.545-0.768,3.31-1.151,5.292-1.151
		c2.537,0,4.749,0.48,6.635,1.439c1.887,0.959,3.459,2.398,4.717,4.316c0.811,1.279,1.392,2.734,1.743,4.365
		s0.527,4.013,0.527,7.146v18.61h-8.186V37.41c0-4.711-0.544-7.94-1.631-9.689c-1.088-1.747-2.964-2.622-5.628-2.622
		c-2.729,0-4.69,0.965-5.884,2.895c-1.194,1.93-1.791,5.239-1.791,9.929v15.061h-7.897V17.809H498.483z"/>
	<path fill="#D61827" d="M531.164,52.982V25.099h-5.372v-7.29h5.372V6.425h8.186v11.384h5.404v7.29h-5.404v27.884H531.164z"/>
</g>
</svg>
