<?xml version="1.0" encoding="utf-8"?>
<!-- Generator: Adobe Illustrator 16.0.0, SVG Export Plug-In . SVG Version: 6.00 Build 0)  -->
<!DOCTYPE svg PUBLIC "-//W3C//DTD SVG 1.1//EN" "http://www.w3.org/Graphics/SVG/1.1/DTD/svg11.dtd">
<svg version="1.1" id="Warstwa_1" xmlns="http://www.w3.org/2000/svg" xmlns:xlink="http://www.w3.org/1999/xlink" x="0px" y="0px"
	 width="122.75px" height="105.868px" viewBox="0 0 122.75 105.868" enable-background="new 0 0 122.75 105.868"
	 xml:space="preserve">
<g>
	<path fill-rule="evenodd" clip-rule="evenodd" fill="#FFFFFF" d="M64.852,72.517c-0.017,1.1-0.931,2-2.031,2h-1.602
		c-1.1,0-2.014-0.9-2.031-2l-0.661-42.604c-0.017-1.1,0.869-2,1.969-2h3.047c1.1,0,1.986,0.9,1.969,2L64.852,72.517z"/>
</g>
<circle fill-rule="evenodd" clip-rule="evenodd" fill="#FFFFFF" cx="62.02" cy="83.618" r="4.396"/>
<g>
	<path fill="#FFFFFF" d="M108.768,105.868H15.27c-5,0-8.794-1.801-10.682-5.07c-1.888-3.27-1.55-7.455,0.95-11.786l46.75-80.973
		c2.5-4.331,5.957-6.716,9.732-6.716s7.232,2.385,9.732,6.716L118.5,89.012c2.5,4.331,2.838,8.517,0.95,11.786
		C117.562,104.067,113.769,105.868,108.768,105.868z M62.02,5.323c-2.286,0-4.512,1.675-6.268,4.716L9.002,91.012
		c-1.755,3.041-2.093,5.807-0.95,7.786s3.707,3.07,7.218,3.07h93.498c3.511,0,6.075-1.091,7.218-3.07s0.806-4.745-0.95-7.786
		L68.288,10.039C66.532,6.998,64.306,5.323,62.02,5.323z"/>
</g>
</svg>
