<?xml version="1.0" encoding="utf-8"?>
<!-- Generator: Adobe Illustrator 16.0.0, SVG Export Plug-In . SVG Version: 6.00 Build 0)  -->
<!DOCTYPE svg PUBLIC "-//W3C//DTD SVG 1.1//EN" "http://www.w3.org/Graphics/SVG/1.1/DTD/svg11.dtd">
<svg version="1.1" id="Warstwa_1" xmlns="http://www.w3.org/2000/svg" xmlns:xlink="http://www.w3.org/1999/xlink" x="0px" y="0px"
	 width="40.854px" height="40.854px" viewBox="0 0 40.854 40.854" enable-background="new 0 0 40.854 40.854" xml:space="preserve">
<g>
	<g>
		<path fill="none" stroke="#FFFFFF" stroke-width="2" stroke-linecap="round" stroke-miterlimit="10" d="M5.208,3.067L3.43,5.984
			c0,0-6.756,9.264,7.72,23.84l-0.003,0.003c0.023,0.022,0.046,0.043,0.069,0.066c0.022,0.022,0.043,0.046,0.066,0.068l0.002-0.003
			c14.578,14.477,23.841,7.721,23.841,7.721l2.916-1.777c1.674-1.256,1.848-3.703,0.369-5.184l-3.48-3.479
			c-1.209-1.21-3.125-1.347-4.494-0.319l-3.703,2.367c0,0-2.488,1.469-9.448-5.463c-6.932-6.959-5.464-9.448-5.464-9.448
			l2.368-3.703c1.026-1.369,0.891-3.285-0.32-4.495l-3.479-3.479C8.911,1.219,6.463,1.394,5.208,3.067z"/>
	</g>
</g>
</svg>
