<?xml version="1.0" encoding="utf-8"?>
<!-- Generator: Adobe Illustrator 16.0.0, SVG Export Plug-In . SVG Version: 6.00 Build 0)  -->
<!DOCTYPE svg PUBLIC "-//W3C//DTD SVG 1.1//EN" "http://www.w3.org/Graphics/SVG/1.1/DTD/svg11.dtd">
<svg version="1.1" id="Warstwa_1" xmlns="http://www.w3.org/2000/svg" xmlns:xlink="http://www.w3.org/1999/xlink" x="0px" y="0px"
	 width="74.583px" height="65.421px" viewBox="0 0 74.583 65.421" enable-background="new 0 0 74.583 65.421" xml:space="preserve">
<path fill="none" stroke="#D61827" stroke-width="2" stroke-miterlimit="10" d="M30.292,17.634v-7c0-3.866,3.134-7,7-7l0,0
	c3.866,0,7,3.134,7,7v7"/>
<path fill="none" stroke="#D61827" stroke-width="2" stroke-miterlimit="10" d="M59.958,54.44c0,2.762-2.239,5-5,5H19.625
	c-2.761,0-5-2.238-5-5V22.634c0-2.762,2.239-5,5-5h35.333c2.761,0,5,2.238,5,5V54.44z"/>
<path fill="none" stroke="#FFFFFF" stroke-width="2" stroke-miterlimit="10" d="M42.667,35.276c0-2.969-2.407-5.375-5.375-5.375
	s-5.375,2.406-5.375,5.375c0,2.137,1.25,3.978,3.056,4.844v5.17c0,1.342,1.088,2.431,2.43,2.431s2.43-1.089,2.43-2.431v-5.276
	C41.52,39.106,42.667,37.326,42.667,35.276z"/>
</svg>
